<svg class="css-c2jg69" width="24" height="24" viewBox="0 0 24 24" xmlns="http://www.w3.org/2000/svg"><path fill-rule="evenodd" clip-rule="evenodd" d="M11.023 3.054C8.805 3.31 6.709 4.4 5.266 6.052 2.244 9.51 2.245 14.57 5.268 18.05a8.671 8.671 0 0 0 1.75 1.519c1.062.711 2.018 1.101 3.444 1.406l.123.026v-6.316H8.29V12.05h2.287l.022-1.469c.02-1.212.04-1.52.12-1.77.4-1.245 1.203-1.978 2.437-2.227.52-.105 1.69-.087 2.473.038l.424.068v2.286h-.759c-1.066 0-1.442.153-1.705.697-.117.242-.129.35-.15 1.32l-.022 1.057h1.263c.695 0 1.263.02 1.263.045 0 .025-.037.278-.083.563-.12.744-.179 1.12-.25 1.601l-.064.426h-2.117V21l.123-.026a12.97 12.97 0 0 0 1.54-.424c2.999-1.108 5.188-3.72 5.781-6.893.17-.914.17-2.3 0-3.214a9.087 9.087 0 0 0-4.923-6.522 9.032 9.032 0 0 0-4.926-.867Z" style="fill: #ffffffcc"></path></svg>