<svg class="css-c2jg69" width="24" height="24" viewBox="0 0 24 24" xmlns="http://www.w3.org/2000/svg"><path d="M12.001 7.385A4.608 4.608 0 0 0 7.386 12a4.608 4.608 0 0 0 4.615 4.615A4.608 4.608 0 0 0 16.616 12a4.608 4.608 0 0 0-4.615-4.615Zm0 7.615c-1.65 0-3-1.345-3-3s1.345-3 3-3 3 1.345 3 3-1.35 3-3 3Zm5.88-7.804c0 .599-.482 1.077-1.076 1.077a1.076 1.076 0 1 1 1.076-1.076Zm3.057 1.093c-.069-1.442-.398-2.72-1.454-3.772-1.053-1.052-2.33-1.381-3.772-1.454-1.486-.084-5.94-.084-7.426 0-1.438.069-2.715.398-3.772 1.45-1.056 1.053-1.381 2.33-1.454 3.772-.084 1.486-.084 5.94 0 7.426.069 1.442.398 2.72 1.454 3.772 1.057 1.052 2.33 1.381 3.772 1.454 1.486.084 5.94.084 7.426 0 1.442-.069 2.72-.398 3.772-1.454 1.052-1.053 1.381-2.33 1.454-3.772.084-1.486.084-5.936 0-7.422Zm-1.92 9.017a3.037 3.037 0 0 1-1.711 1.71c-1.185.47-3.996.362-5.306.362s-4.125.105-5.306-.361a3.037 3.037 0 0 1-1.71-1.711c-.47-1.185-.362-3.997-.362-5.306 0-1.31-.105-4.125.361-5.306a3.038 3.038 0 0 1 1.711-1.71c1.185-.47 3.997-.362 5.306-.362 1.31 0 4.125-.105 5.306.361.787.313 1.394.92 1.71 1.711.47 1.185.362 3.997.362 5.306 0 1.31.109 4.125-.361 5.306Z" style="fill: #ffffffcc;"></path></svg>