<svg class="css-c2jg69" width="24" height="24" viewBox="0 0 24 24" xmlns="http://www.w3.org/2000/svg"><path d="M21.582 7.467a2.486 2.486 0 0 0-1.768-1.74C18.254 5.314 12 5.314 12 5.314s-6.254 0-7.814.411a2.486 2.486 0 0 0-1.768 1.741C2 9.003 2 12.207 2 12.207s0 3.204.418 4.74c.23.847.908 1.487 1.768 1.713 1.56.412 7.814.412 7.814.412s6.254 0 7.814-.412c.86-.226 1.538-.866 1.768-1.713.418-1.536.418-4.74.418-4.74s0-3.204-.418-4.74Zm-11.627 7.65v-5.82l5.227 2.91-5.227 2.908Z" style="fill: #ffffffcc;"></path></svg> 